<svg width="40" height="40" viewBox="0 0 40 40" fill="none" xmlns="http://www.w3.org/2000/svg">
<rect width="40" height="40" rx="20" fill="#004CE8"/>
<path fill-rule="evenodd" clip-rule="evenodd" d="M25.2038 18.7962L26.9998 17.0002C27.545 16.4549 27.8176 16.1823 27.9634 15.8882C28.2407 15.3287 28.2407 14.6717 27.9634 14.1122C27.8176 13.8181 27.545 13.5454 26.9998 13.0002C26.4545 12.4549 26.1819 12.1823 25.8878 12.0366C25.3282 11.7593 24.6713 11.7593 24.1117 12.0366C23.8176 12.1823 23.545 12.4549 22.9998 13.0002L21.1811 14.8188C22.145 16.4694 23.5311 17.845 25.2038 18.7962ZM19.7267 16.2733L12.8562 23.1438C12.4311 23.5689 12.2186 23.7814 12.0788 24.0425C11.9391 24.3036 11.8801 24.5983 11.7623 25.1878L11.1469 28.2648C11.0803 28.5974 11.0471 28.7637 11.1417 28.8583C11.2363 28.9529 11.4026 28.9196 11.7352 28.8531L14.8122 28.2377C15.4016 28.1198 15.6964 28.0609 15.9575 27.9211C16.2186 27.7814 16.4311 27.5689 16.8562 27.1438L23.7456 20.2544C22.1239 19.2388 20.7522 17.8765 19.7267 16.2733Z" fill="white"/>
</svg>
