<svg width="113" height="113" viewBox="0 0 113 113" fill="none" xmlns="http://www.w3.org/2000/svg">
<rect width="113" height="113" fill="#FBFBFB"/>
<g clip-path="url(#clip0_0_1)">
<rect x="-1727" y="-892" width="1920" height="1085" rx="24" fill="#F5F4F9"/>
<circle cx="56.5" cy="56.5" r="56.5" fill="#F9E423"/>
<path fill-rule="evenodd" clip-rule="evenodd" d="M69.25 56.6667C69.25 55.7002 70.0335 54.9167 71 54.9167H80.3333C81.2998 54.9167 82.0833 55.7002 82.0833 56.6667V75.3334C82.0833 76.2999 81.2998 77.0834 80.3333 77.0834H75.2248L72.2374 80.0709C71.554 80.7543 70.4459 80.7543 69.7625 80.0709L66.7751 77.0834H54.6666C53.7001 77.0834 52.9166 76.2999 52.9166 75.3334V66.0001C52.9166 65.0336 53.7001 64.2501 54.6666 64.2501H69.25V56.6667ZM72.75 58.4167V66.0001C72.75 66.9666 71.9665 67.7501 71 67.7501H56.4166V73.5834H67.5C67.9641 73.5834 68.4092 73.7678 68.7374 74.096L71 76.3585L73.2625 74.096C73.5907 73.7678 74.0358 73.5834 74.5 73.5834H78.5833V58.4167H72.75Z" fill="#AA6F34"/>
<path fill-rule="evenodd" clip-rule="evenodd" d="M31.9166 38C31.9166 37.0335 32.7001 36.25 33.6666 36.25H71C71.9665 36.25 72.75 37.0335 72.75 38V66C72.75 66.9665 71.9665 67.75 71 67.75H49.5582L45.4041 71.9041C44.7206 72.5875 43.6126 72.5875 42.9292 71.9041L38.7751 67.75H33.6666C32.7001 67.75 31.9166 66.9665 31.9166 66V38ZM35.4166 39.75V64.25H39.5C39.9641 64.25 40.4092 64.4344 40.7374 64.7626L44.1666 68.1918L47.5959 64.7626C47.924 64.4344 48.3692 64.25 48.8333 64.25H69.25V39.75H35.4166Z" fill="#AA6F34"/>
<path fill-rule="evenodd" clip-rule="evenodd" d="M41.25 56.6667C41.25 55.7002 42.0335 54.9167 43 54.9167H50C50.9665 54.9167 51.75 55.7002 51.75 56.6667C51.75 57.6332 50.9665 58.4167 50 58.4167H43C42.0335 58.4167 41.25 57.6332 41.25 56.6667Z" fill="#AA6F34"/>
<path fill-rule="evenodd" clip-rule="evenodd" d="M41.25 47.3333C41.25 46.3668 42.0335 45.5833 43 45.5833H57C57.9665 45.5833 58.75 46.3668 58.75 47.3333C58.75 48.2998 57.9665 49.0833 57 49.0833H43C42.0335 49.0833 41.25 48.2998 41.25 47.3333Z" fill="#AA6F34"/>
</g>
<defs>
<clipPath id="clip0_0_1">
<rect x="-1727" y="-892" width="1920" height="1085" rx="24" fill="white"/>
</clipPath>
</defs>
</svg>
