<svg width="24" height="25" viewBox="0 0 24 25" fill="none" xmlns="http://www.w3.org/2000/svg">
<g clip-path="url(#clip0_5119_3103)">
<path d="M17.8817 19.6924C16.1229 20.8079 14.0824 21.3987 11.9997 21.3954C6.60766 21.3954 2.12166 17.5154 1.18066 12.3954C1.61069 10.0661 2.78229 7.93828 4.52066 6.32939L1.39166 3.20339L2.80666 1.78839L22.6057 21.5884L21.1907 23.0024L17.8807 19.6924H17.8817ZM5.93466 7.74539C4.57567 8.98098 3.62898 10.6042 3.22266 12.3954C3.53496 13.7618 4.16193 15.0365 5.05367 16.118C5.94541 17.1994 7.07729 18.0578 8.35922 18.6247C9.64114 19.1916 11.0377 19.4514 12.4378 19.3835C13.8378 19.3156 15.2026 18.9218 16.4237 18.2334L14.3957 16.2054C13.5324 16.7492 12.5099 16.9835 11.4959 16.8698C10.4819 16.7562 9.53671 16.3013 8.81523 15.5798C8.09376 14.8583 7.63889 13.9131 7.52523 12.8991C7.41156 11.8852 7.64585 10.8627 8.18966 9.99939L5.93466 7.74539ZM12.9137 14.7234L9.67166 11.4814C9.49373 11.9343 9.45185 12.4293 9.55117 12.9057C9.65049 13.3821 9.88668 13.8192 10.2308 14.1633C10.5749 14.5074 11.0119 14.7436 11.4883 14.8429C11.9647 14.9422 12.4597 14.9003 12.9127 14.7224L12.9137 14.7234ZM20.8067 16.9874L19.3757 15.5574C20.0441 14.6047 20.5201 13.5306 20.7767 12.3954C20.5049 11.2051 19.9939 10.0825 19.2748 9.09588C18.5557 8.10923 17.6435 7.27911 16.5935 6.65599C15.5436 6.03287 14.378 5.62975 13.1674 5.47115C11.9568 5.31255 10.7267 5.40177 9.55166 5.73339L7.97366 4.15539C9.22066 3.66539 10.5797 3.39539 11.9997 3.39539C17.3917 3.39539 21.8777 7.27539 22.8187 12.3954C22.5122 14.0611 21.8235 15.633 20.8067 16.9874ZM11.7227 7.90339C12.3592 7.86405 12.9968 7.96045 13.5932 8.1862C14.1896 8.41196 14.7313 8.7619 15.1822 9.21284C15.6332 9.66378 15.9831 10.2054 16.2088 10.8018C16.4346 11.3983 16.531 12.0359 16.4917 12.6724L11.7217 7.90339H11.7227Z" fill="#BDBDBD"/>
</g>
<defs>
<clipPath id="clip0_5119_3103">
<rect width="24" height="24" fill="white" transform="translate(0 0.395386)"/>
</clipPath>
</defs>
</svg>
