<svg width="32" height="32" viewBox="0 0 32 32" fill="none" xmlns="http://www.w3.org/2000/svg">
<path fill-rule="evenodd" clip-rule="evenodd" d="M9.62624 7.99967C8.47424 7.99967 7.39424 8.44501 6.58624 9.25434C4.90891 10.9343 4.90891 13.669 6.58757 15.3517L15.9996 24.7797L25.4129 15.3517C27.0916 13.669 27.0916 10.9343 25.4129 9.25434C23.7969 7.63434 20.9489 7.63701 19.3329 9.25434L16.9436 11.6477C16.4422 12.1503 15.5569 12.1503 15.0556 11.6477L12.6662 9.25301C11.8582 8.44501 10.7796 7.99967 9.62624 7.99967ZM15.9996 27.9997C15.6462 27.9997 15.3062 27.8597 15.0569 27.6077L4.69957 17.2343C1.98491 14.5143 1.98491 10.089 4.69957 7.36901C6.01157 6.05701 7.76091 5.33301 9.62624 5.33301C11.4916 5.33301 13.2422 6.05701 14.5529 7.36901L15.9996 8.81834L17.4462 7.37034C18.7582 6.05701 20.5076 5.33301 22.3742 5.33301C24.2382 5.33301 25.9889 6.05701 27.2996 7.36901C30.0156 10.089 30.0156 14.5143 27.3009 17.2343L16.9436 27.609C16.6929 27.8597 16.3542 27.9997 15.9996 27.9997Z" fill="#AA6F34"/>
</svg>
