<svg width="32" height="32" viewBox="0 0 32 32" fill="none" xmlns="http://www.w3.org/2000/svg">
<path fill-rule="evenodd" clip-rule="evenodd" d="M16 3.66699C13.6068 3.66699 11.6667 5.60709 11.6667 8.00033C11.6667 10.3936 13.6068 12.3337 16 12.3337C18.3933 12.3337 20.3334 10.3936 20.3334 8.00033C20.3334 5.60709 18.3933 3.66699 16 3.66699ZM9.66669 8.00033C9.66669 4.50252 12.5022 1.66699 16 1.66699C19.4978 1.66699 22.3334 4.50252 22.3334 8.00033C22.3334 11.4981 19.4978 14.3337 16 14.3337C12.5022 14.3337 9.66669 11.4981 9.66669 8.00033Z" fill="#AA6F34"/>
<path fill-rule="evenodd" clip-rule="evenodd" d="M3 29.333C3 22.1533 8.82032 16.333 16 16.333C23.1797 16.333 29 22.1533 29 29.333C29 29.8853 28.5523 30.333 28 30.333C27.4477 30.333 27 29.8853 27 29.333C27 23.2579 22.0751 18.333 16 18.333C9.92488 18.333 5 23.2579 5 29.333C5 29.8853 4.55228 30.333 4 30.333C3.44772 30.333 3 29.8853 3 29.333Z" fill="#AA6F34"/>
</svg>
